<svg xmlns="http://www.w3.org/2000/svg" viewBox="0 0 590 457.73"><defs><style>.cls-1{fill:#ea4335;}.cls-2{fill:#4285f4;}.cls-3{fill:#fff;stroke:#000;stroke-miterlimit:10;}.cls-4{fill:#fbbc05;}.cls-5{fill:#34a853;}</style></defs><title>Asset 2</title><g id="Layer_2" data-name="Layer 2"><g id="Layer_1-2" data-name="Layer 1"><path class="cls-1" d="M295,169.73a80,80,0,1,0,80,80A80,80,0,0,0,295,169.73Zm0,0a80,80,0,1,0,80,80A80,80,0,0,0,295,169.73Zm213.36-127H485l34.74,34.74A53.74,53.74,0,0,1,549,125.36V375.1a53.79,53.79,0,0,1-53.79,53.79H94.79A53.79,53.79,0,0,1,41,375.1V295.73l-41-41V376.09a81.64,81.64,0,0,0,81.64,81.64H508.36A81.64,81.64,0,0,0,590,376.09V124.37A81.64,81.64,0,0,0,508.36,42.73ZM295,329.73a80,80,0,1,0-80-80A80,80,0,0,0,295,329.73Zm0-160a80,80,0,1,0,80,80A80,80,0,0,0,295,169.73Zm0,0a80,80,0,1,0,80,80A80,80,0,0,0,295,169.73Z"/><path class="cls-2" d="M519.74,77.47a53.66,53.66,0,0,0-24.53-5.9H94.79A53.79,53.79,0,0,0,41,125.36V295.73l-41-41V124.37A81.64,81.64,0,0,1,81.64,42.73H213.09L244.17,0H346.33l31.08,42.73H485Z"/><circle class="cls-3" cx="295" cy="249.73" r="80"/><path class="cls-4" d="M203,457.73H81.64A81.64,81.64,0,0,1,0,376.09V254.73l41,41V375.1a53.79,53.79,0,0,0,53.79,53.79h79.37Z"/><path class="cls-5" d="M590,124.37v23.36l-46.9-46.9a54.11,54.11,0,0,0-23.36-23.36L485,42.73h23.36A81.64,81.64,0,0,1,590,124.37Z"/><circle class="cls-2" cx="295" cy="249.73" r="80"/></g></g></svg>