<svg xmlns="http://www.w3.org/2000/svg" viewBox="0 0 294 469.56"><defs><style>.cls-1{fill:#ea4335;}.cls-2{fill:#4285f4;}.cls-3{fill:#34a853;}.cls-4{fill:#fbbc05;}</style></defs><title>Asset 1</title><g id="Layer_2" data-name="Layer 2"><g id="Layer_1-2" data-name="Layer 1"><path class="cls-1" d="M294,248.56A147,147,0,0,1,160,395q-6.44.57-13,.57T134,395A147,147,0,0,1,0,248.56H29.21a118.15,118.15,0,0,0,236.29,0Z"/><path class="cls-2" d="M232,84.5V241.62c0,2.34-.09,4.65-.29,6.94a84.5,84.5,0,0,1-168.42,0c-.2-2.29-.29-4.6-.29-6.94V84.5a84.5,84.5,0,0,1,169,0Z"/><path class="cls-3" d="M160,395v74.57H134V395q6.44.57,13,.57T160,395Z"/><path class="cls-4" d="M72.11,339.65l-24.64,17.1A146.61,146.61,0,0,1,0,248.56H29.21A117.93,117.93,0,0,0,72.11,339.65Z"/></g></g></svg>